<mxfile host="app.diagrams.net" modified="2022-12-13T00:49:43.591Z" agent="5.0 (Macintosh; Intel Mac OS X 10_15_7) AppleWebKit/537.36 (KHTML, like Gecko) Chrome/107.0.0.0 Safari/537.36" etag="zbcuo5MLSnJl50NMvWnK" version="20.6.2" type="github">
  <diagram id="cxVXgLL5Hog8gmkcQAtJ" name="Page-1">
    <mxGraphModel dx="2946" dy="1158" grid="1" gridSize="10" guides="1" tooltips="1" connect="1" arrows="1" fold="1" page="1" pageScale="1" pageWidth="850" pageHeight="1100" math="1" shadow="0">
      <root>
        <mxCell id="0" />
        <mxCell id="1" parent="0" />
        <mxCell id="coTzlBghT9K5j_pK15S6-1" value="Bidirectional LSTM / LSTM" style="shape=cube;whiteSpace=wrap;html=1;boundedLbl=1;backgroundOutline=1;darkOpacity=0.05;darkOpacity2=0.1;size=10;rotation=0;" parent="1" vertex="1">
          <mxGeometry x="470" y="410" width="130" height="90" as="geometry" />
        </mxCell>
        <mxCell id="coTzlBghT9K5j_pK15S6-41" value="" style="whiteSpace=wrap;html=1;aspect=fixed;" parent="1" vertex="1">
          <mxGeometry x="130" y="450" width="20" height="20" as="geometry" />
        </mxCell>
        <mxCell id="coTzlBghT9K5j_pK15S6-50" value="" style="whiteSpace=wrap;html=1;aspect=fixed;" parent="1" vertex="1">
          <mxGeometry x="190" y="450" width="20" height="20" as="geometry" />
        </mxCell>
        <mxCell id="coTzlBghT9K5j_pK15S6-51" value="" style="whiteSpace=wrap;html=1;aspect=fixed;" parent="1" vertex="1">
          <mxGeometry x="150" y="450" width="20" height="20" as="geometry" />
        </mxCell>
        <mxCell id="coTzlBghT9K5j_pK15S6-52" value="" style="whiteSpace=wrap;html=1;aspect=fixed;" parent="1" vertex="1">
          <mxGeometry x="170" y="450" width="20" height="20" as="geometry" />
        </mxCell>
        <mxCell id="coTzlBghT9K5j_pK15S6-54" value="" style="whiteSpace=wrap;html=1;aspect=fixed;" parent="1" vertex="1">
          <mxGeometry x="110" y="450" width="20" height="20" as="geometry" />
        </mxCell>
        <mxCell id="coTzlBghT9K5j_pK15S6-75" value="" style="shape=cube;whiteSpace=wrap;html=1;boundedLbl=1;backgroundOutline=1;darkOpacity=0.05;darkOpacity2=0.1;size=70;rotation=90;flipH=0;flipV=0;fillColor=#fff2cc;strokeColor=#d6b656;" parent="1" vertex="1">
          <mxGeometry x="210" y="415" width="190" height="80" as="geometry" />
        </mxCell>
        <mxCell id="coTzlBghT9K5j_pK15S6-78" value="&lt;font style=&quot;font-size: 16px&quot;&gt;Convolution&lt;/font&gt;" style="text;html=1;strokeColor=none;fillColor=none;align=center;verticalAlign=middle;whiteSpace=wrap;rounded=0;rotation=0;" parent="1" vertex="1">
          <mxGeometry x="260" y="565" width="60" height="30" as="geometry" />
        </mxCell>
        <mxCell id="coTzlBghT9K5j_pK15S6-79" value="&lt;font style=&quot;font-size: 16px&quot;&gt;Pooling&lt;/font&gt;" style="text;html=1;strokeColor=none;fillColor=none;align=center;verticalAlign=middle;whiteSpace=wrap;rounded=0;rotation=0;" parent="1" vertex="1">
          <mxGeometry x="350" y="565" width="60" height="30" as="geometry" />
        </mxCell>
        <mxCell id="coTzlBghT9K5j_pK15S6-217" value="" style="edgeStyle=orthogonalEdgeStyle;rounded=0;jumpSize=4;orthogonalLoop=1;jettySize=auto;html=1;fontSize=16;endArrow=classicThin;endFill=1;startSize=4;endSize=6;strokeColor=#666666;strokeWidth=0.5;" parent="1" source="coTzlBghT9K5j_pK15S6-81" target="coTzlBghT9K5j_pK15S6-1" edge="1">
          <mxGeometry relative="1" as="geometry" />
        </mxCell>
        <mxCell id="coTzlBghT9K5j_pK15S6-81" value="" style="ellipse;whiteSpace=wrap;html=1;aspect=fixed;" parent="1" vertex="1">
          <mxGeometry x="420" y="440" width="30" height="30" as="geometry" />
        </mxCell>
        <mxCell id="coTzlBghT9K5j_pK15S6-88" value="" style="endArrow=classicThin;html=1;rounded=0;entryX=0.495;entryY=1.014;entryDx=0;entryDy=0;entryPerimeter=0;strokeWidth=0.5;endFill=1;strokeColor=#666666;" parent="1" target="coTzlBghT9K5j_pK15S6-76" edge="1">
          <mxGeometry width="50" height="50" relative="1" as="geometry">
            <mxPoint x="310" y="454.76" as="sourcePoint" />
            <mxPoint x="360" y="455" as="targetPoint" />
          </mxGeometry>
        </mxCell>
        <mxCell id="coTzlBghT9K5j_pK15S6-85" value="" style="curved=1;endArrow=none;html=1;rounded=0;endFill=0;entryX=1;entryY=0.5;entryDx=0;entryDy=0;" parent="1" target="coTzlBghT9K5j_pK15S6-81" edge="1">
          <mxGeometry width="50" height="50" relative="1" as="geometry">
            <mxPoint x="420" y="454.9999999999999" as="sourcePoint" />
            <mxPoint x="470" y="465" as="targetPoint" />
            <Array as="points">
              <mxPoint x="435" y="465" />
              <mxPoint x="435" y="445" />
            </Array>
          </mxGeometry>
        </mxCell>
        <mxCell id="coTzlBghT9K5j_pK15S6-76" value="" style="shape=cube;whiteSpace=wrap;html=1;boundedLbl=1;backgroundOutline=1;darkOpacity=0.05;darkOpacity2=0.1;size=30;rotation=90;flipH=0;flipV=0;fillColor=#e1d5e7;strokeColor=#9673a6;" parent="1" vertex="1">
          <mxGeometry x="330" y="435" width="110" height="40" as="geometry" />
        </mxCell>
        <mxCell id="coTzlBghT9K5j_pK15S6-92" value="x&lt;span style=&quot;font-size: 10px&quot;&gt;&lt;sup&gt;(1)&lt;/sup&gt;&lt;/span&gt;" style="ellipse;whiteSpace=wrap;html=1;aspect=fixed;fillColor=#dae8fc;strokeColor=#000000;" parent="1" vertex="1">
          <mxGeometry x="650" y="360" width="30" height="30" as="geometry" />
        </mxCell>
        <mxCell id="coTzlBghT9K5j_pK15S6-93" value="&lt;span&gt;x&lt;/span&gt;&lt;span style=&quot;font-size: 10px&quot;&gt;&lt;sup&gt;(2)&lt;/sup&gt;&lt;/span&gt;" style="ellipse;whiteSpace=wrap;html=1;aspect=fixed;fillColor=#dae8fc;strokeColor=#000000;" parent="1" vertex="1">
          <mxGeometry x="650" y="400" width="30" height="30" as="geometry" />
        </mxCell>
        <mxCell id="coTzlBghT9K5j_pK15S6-94" value="&lt;span&gt;x&lt;/span&gt;&lt;span style=&quot;font-size: 10px&quot;&gt;&lt;sup&gt;(3)&lt;/sup&gt;&lt;/span&gt;" style="ellipse;whiteSpace=wrap;html=1;aspect=fixed;fillColor=#dae8fc;strokeColor=#000000;" parent="1" vertex="1">
          <mxGeometry x="650" y="440" width="30" height="30" as="geometry" />
        </mxCell>
        <mxCell id="coTzlBghT9K5j_pK15S6-95" value="&lt;span&gt;x&lt;/span&gt;&lt;span style=&quot;font-size: 10px&quot;&gt;&lt;sup&gt;(k)&lt;/sup&gt;&lt;/span&gt;" style="ellipse;whiteSpace=wrap;html=1;aspect=fixed;fillColor=#dae8fc;strokeColor=#000000;" parent="1" vertex="1">
          <mxGeometry x="650" y="520" width="30" height="30" as="geometry" />
        </mxCell>
        <mxCell id="coTzlBghT9K5j_pK15S6-96" value="" style="endArrow=none;dashed=1;html=1;dashPattern=1 3;strokeWidth=2;rounded=0;strokeColor=#666666;" parent="1" edge="1">
          <mxGeometry width="50" height="50" relative="1" as="geometry">
            <mxPoint x="664.5799999999999" y="510" as="sourcePoint" />
            <mxPoint x="664.92" y="470" as="targetPoint" />
          </mxGeometry>
        </mxCell>
        <mxCell id="coTzlBghT9K5j_pK15S6-97" value="&lt;span style=&quot;font-size: 12px&quot;&gt;z&lt;/span&gt;&lt;sup&gt;(1)&lt;/sup&gt;" style="ellipse;whiteSpace=wrap;html=1;aspect=fixed;fillColor=#f8cecc;strokeColor=#000000;" parent="1" vertex="1">
          <mxGeometry x="710" y="360" width="30" height="30" as="geometry" />
        </mxCell>
        <mxCell id="coTzlBghT9K5j_pK15S6-98" value="&lt;span&gt;z&lt;/span&gt;&lt;sup&gt;(2)&lt;/sup&gt;" style="ellipse;whiteSpace=wrap;html=1;aspect=fixed;fillColor=#f8cecc;strokeColor=#000000;" parent="1" vertex="1">
          <mxGeometry x="710" y="400" width="30" height="30" as="geometry" />
        </mxCell>
        <mxCell id="coTzlBghT9K5j_pK15S6-99" value="&lt;span&gt;z&lt;/span&gt;&lt;sup&gt;(3)&lt;/sup&gt;" style="ellipse;whiteSpace=wrap;html=1;aspect=fixed;fillColor=#f8cecc;strokeColor=#000000;" parent="1" vertex="1">
          <mxGeometry x="710" y="440" width="30" height="30" as="geometry" />
        </mxCell>
        <mxCell id="coTzlBghT9K5j_pK15S6-100" value="&lt;span&gt;z&lt;/span&gt;&lt;sup&gt;(k)&lt;/sup&gt;" style="ellipse;whiteSpace=wrap;html=1;aspect=fixed;fillColor=#f8cecc;strokeColor=#000000;" parent="1" vertex="1">
          <mxGeometry x="710" y="520" width="30" height="30" as="geometry" />
        </mxCell>
        <mxCell id="coTzlBghT9K5j_pK15S6-101" value="" style="endArrow=none;dashed=1;html=1;dashPattern=1 3;strokeWidth=2;rounded=0;strokeColor=#666666;" parent="1" edge="1">
          <mxGeometry width="50" height="50" relative="1" as="geometry">
            <mxPoint x="724.5799999999998" y="510" as="sourcePoint" />
            <mxPoint x="724.92" y="470" as="targetPoint" />
          </mxGeometry>
        </mxCell>
        <mxCell id="coTzlBghT9K5j_pK15S6-102" value="" style="endArrow=classic;html=1;rounded=0;strokeColor=#666666;endFill=1;endSize=3;jumpSize=4;startSize=4;strokeWidth=0.5;entryX=0;entryY=0.5;entryDx=0;entryDy=0;exitX=1;exitY=0.5;exitDx=0;exitDy=0;" parent="1" source="coTzlBghT9K5j_pK15S6-92" target="coTzlBghT9K5j_pK15S6-97" edge="1">
          <mxGeometry width="50" height="50" relative="1" as="geometry">
            <mxPoint x="680" y="370" as="sourcePoint" />
            <mxPoint x="730" y="320" as="targetPoint" />
          </mxGeometry>
        </mxCell>
        <mxCell id="coTzlBghT9K5j_pK15S6-104" value="" style="endArrow=classic;html=1;rounded=0;strokeColor=#666666;endFill=1;endSize=3;jumpSize=4;startSize=4;strokeWidth=0.5;entryX=0;entryY=0;entryDx=0;entryDy=0;exitX=1;exitY=0.5;exitDx=0;exitDy=0;" parent="1" source="coTzlBghT9K5j_pK15S6-92" target="coTzlBghT9K5j_pK15S6-98" edge="1">
          <mxGeometry width="50" height="50" relative="1" as="geometry">
            <mxPoint x="689.9999999999964" y="375" as="sourcePoint" />
            <mxPoint x="720.0000000000035" y="375" as="targetPoint" />
          </mxGeometry>
        </mxCell>
        <mxCell id="coTzlBghT9K5j_pK15S6-105" value="" style="endArrow=classic;html=1;rounded=0;strokeColor=#666666;endFill=1;endSize=3;jumpSize=4;startSize=4;strokeWidth=0.5;entryX=0;entryY=0;entryDx=0;entryDy=0;exitX=0.935;exitY=0.726;exitDx=0;exitDy=0;exitPerimeter=0;" parent="1" source="coTzlBghT9K5j_pK15S6-92" target="coTzlBghT9K5j_pK15S6-99" edge="1">
          <mxGeometry width="50" height="50" relative="1" as="geometry">
            <mxPoint x="699.9999999999964" y="385" as="sourcePoint" />
            <mxPoint x="730.0000000000035" y="385" as="targetPoint" />
          </mxGeometry>
        </mxCell>
        <mxCell id="coTzlBghT9K5j_pK15S6-106" value="" style="endArrow=classic;html=1;rounded=0;strokeColor=#666666;endFill=1;endSize=3;jumpSize=4;startSize=4;strokeWidth=0.5;entryX=0;entryY=0;entryDx=0;entryDy=0;exitX=1;exitY=1;exitDx=0;exitDy=0;" parent="1" source="coTzlBghT9K5j_pK15S6-92" target="coTzlBghT9K5j_pK15S6-100" edge="1">
          <mxGeometry width="50" height="50" relative="1" as="geometry">
            <mxPoint x="690" y="375" as="sourcePoint" />
            <mxPoint x="720" y="480.01" as="targetPoint" />
          </mxGeometry>
        </mxCell>
        <mxCell id="coTzlBghT9K5j_pK15S6-107" value="" style="endArrow=classic;html=1;rounded=0;strokeColor=#666666;endFill=1;endSize=3;jumpSize=4;startSize=4;strokeWidth=0.5;entryX=0;entryY=0.5;entryDx=0;entryDy=0;exitX=1;exitY=0.5;exitDx=0;exitDy=0;" parent="1" edge="1">
          <mxGeometry width="50" height="50" relative="1" as="geometry">
            <mxPoint x="680" y="414.8600000000001" as="sourcePoint" />
            <mxPoint x="710" y="414.8600000000001" as="targetPoint" />
          </mxGeometry>
        </mxCell>
        <mxCell id="coTzlBghT9K5j_pK15S6-108" value="" style="endArrow=classic;html=1;rounded=0;strokeColor=#666666;endFill=1;endSize=3;jumpSize=4;startSize=4;strokeWidth=0.5;entryX=0;entryY=0.5;entryDx=0;entryDy=0;exitX=1;exitY=0.5;exitDx=0;exitDy=0;" parent="1" edge="1">
          <mxGeometry width="50" height="50" relative="1" as="geometry">
            <mxPoint x="680" y="454.8600000000001" as="sourcePoint" />
            <mxPoint x="710" y="454.8600000000001" as="targetPoint" />
          </mxGeometry>
        </mxCell>
        <mxCell id="coTzlBghT9K5j_pK15S6-109" value="" style="endArrow=classic;html=1;rounded=0;strokeColor=#666666;endFill=1;endSize=3;jumpSize=4;startSize=4;strokeWidth=0.5;entryX=0;entryY=0.5;entryDx=0;entryDy=0;exitX=1;exitY=0.5;exitDx=0;exitDy=0;" parent="1" edge="1">
          <mxGeometry width="50" height="50" relative="1" as="geometry">
            <mxPoint x="680" y="534.8600000000001" as="sourcePoint" />
            <mxPoint x="710" y="534.8600000000001" as="targetPoint" />
          </mxGeometry>
        </mxCell>
        <mxCell id="coTzlBghT9K5j_pK15S6-111" value="" style="endArrow=classic;html=1;rounded=0;strokeColor=#666666;endFill=1;endSize=3;jumpSize=4;startSize=4;strokeWidth=0.5;entryX=0.046;entryY=0.244;entryDx=0;entryDy=0;exitX=1;exitY=0.5;exitDx=0;exitDy=0;entryPerimeter=0;" parent="1" target="coTzlBghT9K5j_pK15S6-99" edge="1">
          <mxGeometry width="50" height="50" relative="1" as="geometry">
            <mxPoint x="680" y="420.0000000000001" as="sourcePoint" />
            <mxPoint x="714.3933982822017" y="449.3933982822017" as="targetPoint" />
          </mxGeometry>
        </mxCell>
        <mxCell id="coTzlBghT9K5j_pK15S6-112" value="" style="endArrow=classic;html=1;rounded=0;strokeColor=#666666;endFill=1;endSize=3;jumpSize=4;startSize=4;strokeWidth=0.5;exitX=0.898;exitY=0.791;exitDx=0;exitDy=0;exitPerimeter=0;entryX=0.074;entryY=0.226;entryDx=0;entryDy=0;entryPerimeter=0;" parent="1" source="coTzlBghT9K5j_pK15S6-93" target="coTzlBghT9K5j_pK15S6-100" edge="1">
          <mxGeometry width="50" height="50" relative="1" as="geometry">
            <mxPoint x="678.62" y="420.0000000000001" as="sourcePoint" />
            <mxPoint x="710" y="530" as="targetPoint" />
          </mxGeometry>
        </mxCell>
        <mxCell id="coTzlBghT9K5j_pK15S6-113" value="" style="endArrow=classic;html=1;rounded=0;strokeColor=#666666;endFill=1;endSize=3;jumpSize=4;startSize=4;strokeWidth=0.5;exitX=0.935;exitY=0.791;exitDx=0;exitDy=0;exitPerimeter=0;" parent="1" source="coTzlBghT9K5j_pK15S6-94" edge="1">
          <mxGeometry width="50" height="50" relative="1" as="geometry">
            <mxPoint x="686.9399999999999" y="433.7299999999999" as="sourcePoint" />
            <mxPoint x="710" y="530" as="targetPoint" />
          </mxGeometry>
        </mxCell>
        <mxCell id="coTzlBghT9K5j_pK15S6-114" value="" style="endArrow=classic;html=1;rounded=0;strokeColor=#666666;endFill=1;endSize=3;jumpSize=4;startSize=4;strokeWidth=0.5;entryX=0.056;entryY=0.698;entryDx=0;entryDy=0;exitX=1;exitY=0;exitDx=0;exitDy=0;entryPerimeter=0;" parent="1" source="coTzlBghT9K5j_pK15S6-93" target="coTzlBghT9K5j_pK15S6-97" edge="1">
          <mxGeometry width="50" height="50" relative="1" as="geometry">
            <mxPoint x="690" y="385.0000000000001" as="sourcePoint" />
            <mxPoint x="720" y="385.0000000000001" as="targetPoint" />
          </mxGeometry>
        </mxCell>
        <mxCell id="coTzlBghT9K5j_pK15S6-115" value="" style="endArrow=classic;html=1;rounded=0;strokeColor=#666666;endFill=1;endSize=3;jumpSize=4;startSize=4;strokeWidth=0.5;exitX=1;exitY=0;exitDx=0;exitDy=0;entryX=0.102;entryY=0.791;entryDx=0;entryDy=0;entryPerimeter=0;" parent="1" source="coTzlBghT9K5j_pK15S6-94" target="coTzlBghT9K5j_pK15S6-97" edge="1">
          <mxGeometry width="50" height="50" relative="1" as="geometry">
            <mxPoint x="700" y="395.0000000000001" as="sourcePoint" />
            <mxPoint x="710" y="380" as="targetPoint" />
          </mxGeometry>
        </mxCell>
        <mxCell id="coTzlBghT9K5j_pK15S6-116" value="" style="endArrow=classic;html=1;rounded=0;strokeColor=#666666;endFill=1;endSize=3;jumpSize=4;startSize=4;strokeWidth=0.5;entryX=0.213;entryY=0.865;entryDx=0;entryDy=0;entryPerimeter=0;" parent="1" source="coTzlBghT9K5j_pK15S6-95" target="coTzlBghT9K5j_pK15S6-97" edge="1">
          <mxGeometry width="50" height="50" relative="1" as="geometry">
            <mxPoint x="670" y="520" as="sourcePoint" />
            <mxPoint x="740" y="405.0000000000001" as="targetPoint" />
          </mxGeometry>
        </mxCell>
        <mxCell id="coTzlBghT9K5j_pK15S6-117" value="" style="endArrow=classic;html=1;rounded=0;strokeColor=#666666;endFill=1;endSize=3;jumpSize=4;startSize=4;strokeWidth=0.5;" parent="1" source="coTzlBghT9K5j_pK15S6-94" target="coTzlBghT9K5j_pK15S6-98" edge="1">
          <mxGeometry width="50" height="50" relative="1" as="geometry">
            <mxPoint x="720" y="415.0000000000001" as="sourcePoint" />
            <mxPoint x="750" y="415.0000000000001" as="targetPoint" />
          </mxGeometry>
        </mxCell>
        <mxCell id="coTzlBghT9K5j_pK15S6-118" value="" style="endArrow=classic;html=1;rounded=0;strokeColor=#666666;endFill=1;endSize=3;jumpSize=4;startSize=4;strokeWidth=0.5;entryX=0;entryY=1;entryDx=0;entryDy=0;exitX=1;exitY=0;exitDx=0;exitDy=0;" parent="1" source="coTzlBghT9K5j_pK15S6-95" target="coTzlBghT9K5j_pK15S6-98" edge="1">
          <mxGeometry width="50" height="50" relative="1" as="geometry">
            <mxPoint x="730" y="425.0000000000001" as="sourcePoint" />
            <mxPoint x="760" y="425.0000000000001" as="targetPoint" />
          </mxGeometry>
        </mxCell>
        <mxCell id="coTzlBghT9K5j_pK15S6-119" value="" style="endArrow=classic;html=1;rounded=0;strokeColor=#666666;endFill=1;endSize=3;jumpSize=4;startSize=4;strokeWidth=0.5;exitX=0.926;exitY=0.272;exitDx=0;exitDy=0;exitPerimeter=0;" parent="1" source="coTzlBghT9K5j_pK15S6-95" target="coTzlBghT9K5j_pK15S6-99" edge="1">
          <mxGeometry width="50" height="50" relative="1" as="geometry">
            <mxPoint x="740" y="435.0000000000001" as="sourcePoint" />
            <mxPoint x="770" y="435.0000000000001" as="targetPoint" />
          </mxGeometry>
        </mxCell>
        <mxCell id="coTzlBghT9K5j_pK15S6-120" value="" style="ellipse;whiteSpace=wrap;html=1;aspect=fixed;fillColor=#d5e8d4;strokeColor=#82b366;" parent="1" vertex="1">
          <mxGeometry x="760" y="360" width="30" height="30" as="geometry" />
        </mxCell>
        <mxCell id="coTzlBghT9K5j_pK15S6-121" value="" style="ellipse;whiteSpace=wrap;html=1;aspect=fixed;fillColor=#d5e8d4;strokeColor=#82b366;" parent="1" vertex="1">
          <mxGeometry x="760" y="400" width="30" height="30" as="geometry" />
        </mxCell>
        <mxCell id="coTzlBghT9K5j_pK15S6-122" value="" style="ellipse;whiteSpace=wrap;html=1;aspect=fixed;fillColor=#d5e8d4;strokeColor=#82b366;" parent="1" vertex="1">
          <mxGeometry x="760" y="440" width="30" height="30" as="geometry" />
        </mxCell>
        <mxCell id="coTzlBghT9K5j_pK15S6-123" value="&lt;span&gt;$$\sigma$$&lt;/span&gt;" style="ellipse;whiteSpace=wrap;html=1;aspect=fixed;fillColor=#d5e8d4;strokeColor=#000000;" parent="1" vertex="1">
          <mxGeometry x="760" y="520" width="30" height="30" as="geometry" />
        </mxCell>
        <mxCell id="coTzlBghT9K5j_pK15S6-124" value="" style="endArrow=none;dashed=1;html=1;dashPattern=1 3;strokeWidth=2;rounded=0;strokeColor=#666666;endSize=6;" parent="1" edge="1">
          <mxGeometry width="50" height="50" relative="1" as="geometry">
            <mxPoint x="775" y="510" as="sourcePoint" />
            <mxPoint x="775.1700000000001" y="470" as="targetPoint" />
          </mxGeometry>
        </mxCell>
        <mxCell id="coTzlBghT9K5j_pK15S6-125" value="" style="endArrow=classic;html=1;rounded=0;strokeColor=#666666;endFill=1;endSize=3;jumpSize=4;startSize=4;strokeWidth=0.5;exitX=1;exitY=0.5;exitDx=0;exitDy=0;entryX=0;entryY=0.5;entryDx=0;entryDy=0;" parent="1" target="coTzlBghT9K5j_pK15S6-120" edge="1">
          <mxGeometry width="50" height="50" relative="1" as="geometry">
            <mxPoint x="740" y="374.8600000000001" as="sourcePoint" />
            <mxPoint x="760" y="375" as="targetPoint" />
          </mxGeometry>
        </mxCell>
        <mxCell id="coTzlBghT9K5j_pK15S6-127" value="" style="endArrow=classic;html=1;rounded=0;strokeColor=#666666;endFill=1;endSize=3;jumpSize=4;startSize=4;strokeWidth=0.5;exitX=1;exitY=0.5;exitDx=0;exitDy=0;entryX=0;entryY=0.5;entryDx=0;entryDy=0;" parent="1" edge="1">
          <mxGeometry width="50" height="50" relative="1" as="geometry">
            <mxPoint x="740" y="414.8600000000001" as="sourcePoint" />
            <mxPoint x="760" y="415.0000000000001" as="targetPoint" />
          </mxGeometry>
        </mxCell>
        <mxCell id="coTzlBghT9K5j_pK15S6-128" value="" style="endArrow=classic;html=1;rounded=0;strokeColor=#666666;endFill=1;endSize=3;jumpSize=4;startSize=4;strokeWidth=0.5;exitX=1;exitY=0.5;exitDx=0;exitDy=0;entryX=0;entryY=0.5;entryDx=0;entryDy=0;" parent="1" edge="1">
          <mxGeometry width="50" height="50" relative="1" as="geometry">
            <mxPoint x="740" y="454.8600000000001" as="sourcePoint" />
            <mxPoint x="760" y="455.0000000000001" as="targetPoint" />
          </mxGeometry>
        </mxCell>
        <mxCell id="coTzlBghT9K5j_pK15S6-129" value="" style="endArrow=classic;html=1;rounded=0;strokeColor=#666666;endFill=1;endSize=3;jumpSize=4;startSize=4;strokeWidth=0.5;exitX=1;exitY=0.5;exitDx=0;exitDy=0;entryX=0;entryY=0.5;entryDx=0;entryDy=0;" parent="1" edge="1">
          <mxGeometry width="50" height="50" relative="1" as="geometry">
            <mxPoint x="740" y="534.8600000000001" as="sourcePoint" />
            <mxPoint x="760" y="535.0000000000001" as="targetPoint" />
          </mxGeometry>
        </mxCell>
        <mxCell id="coTzlBghT9K5j_pK15S6-131" value="$$\sigma$$" style="ellipse;whiteSpace=wrap;html=1;aspect=fixed;fillColor=#d5e8d4;strokeColor=#000000;" parent="1" vertex="1">
          <mxGeometry x="760" y="360" width="30" height="30" as="geometry" />
        </mxCell>
        <mxCell id="coTzlBghT9K5j_pK15S6-132" value="&lt;span&gt;$$\sigma$$&lt;/span&gt;" style="ellipse;whiteSpace=wrap;html=1;aspect=fixed;fillColor=#d5e8d4;strokeColor=#000000;" parent="1" vertex="1">
          <mxGeometry x="760" y="400" width="30" height="30" as="geometry" />
        </mxCell>
        <mxCell id="coTzlBghT9K5j_pK15S6-133" value="&lt;span&gt;$$\sigma$$&lt;/span&gt;" style="ellipse;whiteSpace=wrap;html=1;aspect=fixed;fillColor=#d5e8d4;strokeColor=#000000;" parent="1" vertex="1">
          <mxGeometry x="760" y="440" width="30" height="30" as="geometry" />
        </mxCell>
        <mxCell id="coTzlBghT9K5j_pK15S6-135" value="" style="endArrow=classicThin;html=1;rounded=0;entryX=0;entryY=0.5;entryDx=0;entryDy=0;exitX=0;exitY=0;exitDx=130;exitDy=50;exitPerimeter=0;strokeWidth=0.5;strokeColor=#666666;endFill=1;" parent="1" source="coTzlBghT9K5j_pK15S6-1" target="coTzlBghT9K5j_pK15S6-92" edge="1">
          <mxGeometry width="50" height="50" relative="1" as="geometry">
            <mxPoint x="430" y="470.01999999999987" as="sourcePoint" />
            <mxPoint x="480" y="470" as="targetPoint" />
          </mxGeometry>
        </mxCell>
        <mxCell id="coTzlBghT9K5j_pK15S6-136" value="" style="endArrow=classicThin;html=1;rounded=0;entryX=0;entryY=0.5;entryDx=0;entryDy=0;exitX=0;exitY=0;exitDx=130;exitDy=50;exitPerimeter=0;strokeWidth=0.5;strokeColor=#666666;endFill=1;" parent="1" source="coTzlBghT9K5j_pK15S6-1" target="coTzlBghT9K5j_pK15S6-93" edge="1">
          <mxGeometry width="50" height="50" relative="1" as="geometry">
            <mxPoint x="612.73" y="465.9" as="sourcePoint" />
            <mxPoint x="660.0000000000057" y="385" as="targetPoint" />
          </mxGeometry>
        </mxCell>
        <mxCell id="coTzlBghT9K5j_pK15S6-137" value="" style="endArrow=classicThin;html=1;rounded=0;entryX=0;entryY=0.5;entryDx=0;entryDy=0;strokeWidth=0.5;strokeColor=#666666;endFill=1;" parent="1" target="coTzlBghT9K5j_pK15S6-94" edge="1">
          <mxGeometry width="50" height="50" relative="1" as="geometry">
            <mxPoint x="600" y="460" as="sourcePoint" />
            <mxPoint x="660.0000000000057" y="425" as="targetPoint" />
          </mxGeometry>
        </mxCell>
        <mxCell id="coTzlBghT9K5j_pK15S6-138" value="" style="endArrow=classicThin;html=1;rounded=0;entryX=0;entryY=0.333;entryDx=0;entryDy=0;exitX=0;exitY=0;exitDx=130;exitDy=50;exitPerimeter=0;entryPerimeter=0;strokeWidth=0.5;strokeColor=#666666;endFill=1;" parent="1" source="coTzlBghT9K5j_pK15S6-1" target="coTzlBghT9K5j_pK15S6-95" edge="1">
          <mxGeometry width="50" height="50" relative="1" as="geometry">
            <mxPoint x="620" y="480" as="sourcePoint" />
            <mxPoint x="670.0000000000057" y="435" as="targetPoint" />
          </mxGeometry>
        </mxCell>
        <mxCell id="coTzlBghT9K5j_pK15S6-220" value="" style="edgeStyle=orthogonalEdgeStyle;rounded=0;jumpSize=4;orthogonalLoop=1;jettySize=auto;html=1;fontSize=16;endArrow=classicThin;endFill=1;startSize=4;endSize=6;strokeColor=#666666;strokeWidth=0.5;" parent="1" edge="1">
          <mxGeometry relative="1" as="geometry">
            <mxPoint x="399.9999603645929" y="454.94448275862084" as="sourcePoint" />
            <mxPoint x="420" y="454.94448275862084" as="targetPoint" />
          </mxGeometry>
        </mxCell>
        <mxCell id="coTzlBghT9K5j_pK15S6-221" value="&lt;font style=&quot;font-size: 16px&quot;&gt;Fully Connected&lt;/font&gt;" style="text;html=1;strokeColor=none;fillColor=none;align=center;verticalAlign=middle;whiteSpace=wrap;rounded=0;rotation=0;" parent="1" vertex="1">
          <mxGeometry x="650" y="565" width="80" height="30" as="geometry" />
        </mxCell>
        <mxCell id="coTzlBghT9K5j_pK15S6-222" value="" style="endArrow=classic;html=1;rounded=0;strokeColor=#666666;endFill=1;endSize=3;jumpSize=4;startSize=4;strokeWidth=0.5;exitX=1;exitY=0.5;exitDx=0;exitDy=0;entryX=0;entryY=0.5;entryDx=0;entryDy=0;" parent="1" edge="1">
          <mxGeometry width="50" height="50" relative="1" as="geometry">
            <mxPoint x="790" y="374.71000000000004" as="sourcePoint" />
            <mxPoint x="810.0000000000057" y="374.85" as="targetPoint" />
          </mxGeometry>
        </mxCell>
        <mxCell id="coTzlBghT9K5j_pK15S6-223" value="" style="endArrow=classic;html=1;rounded=0;strokeColor=#666666;endFill=1;endSize=3;jumpSize=4;startSize=4;strokeWidth=0.5;exitX=1;exitY=0.5;exitDx=0;exitDy=0;entryX=0;entryY=0.5;entryDx=0;entryDy=0;" parent="1" edge="1">
          <mxGeometry width="50" height="50" relative="1" as="geometry">
            <mxPoint x="790" y="414.88000000000005" as="sourcePoint" />
            <mxPoint x="810.0000000000057" y="415.02000000000004" as="targetPoint" />
          </mxGeometry>
        </mxCell>
        <mxCell id="coTzlBghT9K5j_pK15S6-224" value="" style="endArrow=classic;html=1;rounded=0;strokeColor=#666666;endFill=1;endSize=3;jumpSize=4;startSize=4;strokeWidth=0.5;exitX=1;exitY=0.5;exitDx=0;exitDy=0;entryX=0;entryY=0.5;entryDx=0;entryDy=0;" parent="1" edge="1">
          <mxGeometry width="50" height="50" relative="1" as="geometry">
            <mxPoint x="790" y="454.88000000000005" as="sourcePoint" />
            <mxPoint x="810.0000000000057" y="455.02000000000004" as="targetPoint" />
          </mxGeometry>
        </mxCell>
        <mxCell id="coTzlBghT9K5j_pK15S6-225" value="" style="endArrow=classic;html=1;rounded=0;strokeColor=#666666;endFill=1;endSize=3;jumpSize=4;startSize=4;strokeWidth=0.5;exitX=1;exitY=0.5;exitDx=0;exitDy=0;entryX=0;entryY=0.5;entryDx=0;entryDy=0;" parent="1" edge="1">
          <mxGeometry width="50" height="50" relative="1" as="geometry">
            <mxPoint x="790" y="534.88" as="sourcePoint" />
            <mxPoint x="810.0000000000057" y="535.02" as="targetPoint" />
          </mxGeometry>
        </mxCell>
        <mxCell id="coTzlBghT9K5j_pK15S6-229" value="&lt;font style=&quot;font-size: 14px&quot;&gt;y&lt;sup&gt;(1)&lt;/sup&gt;&lt;/font&gt;" style="text;html=1;strokeColor=none;fillColor=none;align=center;verticalAlign=middle;whiteSpace=wrap;rounded=0;fontSize=16;" parent="1" vertex="1">
          <mxGeometry x="810" y="365" width="40" height="20" as="geometry" />
        </mxCell>
        <mxCell id="coTzlBghT9K5j_pK15S6-230" value="&lt;font style=&quot;font-size: 14px&quot;&gt;y&lt;sup&gt;(2)&lt;/sup&gt;&lt;/font&gt;" style="text;html=1;strokeColor=none;fillColor=none;align=center;verticalAlign=middle;whiteSpace=wrap;rounded=0;fontSize=16;" parent="1" vertex="1">
          <mxGeometry x="810" y="405" width="40" height="20" as="geometry" />
        </mxCell>
        <mxCell id="coTzlBghT9K5j_pK15S6-231" value="&lt;font style=&quot;font-size: 14px&quot;&gt;y&lt;sup&gt;(3)&lt;/sup&gt;&lt;/font&gt;" style="text;html=1;strokeColor=none;fillColor=none;align=center;verticalAlign=middle;whiteSpace=wrap;rounded=0;fontSize=16;" parent="1" vertex="1">
          <mxGeometry x="810" y="445" width="40" height="20" as="geometry" />
        </mxCell>
        <mxCell id="coTzlBghT9K5j_pK15S6-232" value="&lt;font style=&quot;font-size: 14px&quot;&gt;y&lt;sup&gt;(k)&lt;/sup&gt;&lt;/font&gt;" style="text;html=1;strokeColor=none;fillColor=none;align=center;verticalAlign=middle;whiteSpace=wrap;rounded=0;fontSize=16;" parent="1" vertex="1">
          <mxGeometry x="810" y="525" width="40" height="20" as="geometry" />
        </mxCell>
        <mxCell id="coTzlBghT9K5j_pK15S6-233" value="&lt;font style=&quot;font-size: 16px&quot;&gt;Softmax&lt;/font&gt;" style="text;html=1;strokeColor=none;fillColor=none;align=center;verticalAlign=middle;whiteSpace=wrap;rounded=0;rotation=0;" parent="1" vertex="1">
          <mxGeometry x="750" y="565" width="60" height="30" as="geometry" />
        </mxCell>
        <mxCell id="coTzlBghT9K5j_pK15S6-235" value="" style="whiteSpace=wrap;html=1;aspect=fixed;" parent="1" vertex="1">
          <mxGeometry x="130" y="390" width="20" height="20" as="geometry" />
        </mxCell>
        <mxCell id="coTzlBghT9K5j_pK15S6-236" value="" style="whiteSpace=wrap;html=1;aspect=fixed;" parent="1" vertex="1">
          <mxGeometry x="190" y="390" width="20" height="20" as="geometry" />
        </mxCell>
        <mxCell id="coTzlBghT9K5j_pK15S6-237" value="" style="whiteSpace=wrap;html=1;aspect=fixed;" parent="1" vertex="1">
          <mxGeometry x="150" y="390" width="20" height="20" as="geometry" />
        </mxCell>
        <mxCell id="coTzlBghT9K5j_pK15S6-238" value="" style="whiteSpace=wrap;html=1;aspect=fixed;" parent="1" vertex="1">
          <mxGeometry x="170" y="390" width="20" height="20" as="geometry" />
        </mxCell>
        <mxCell id="coTzlBghT9K5j_pK15S6-239" value="" style="whiteSpace=wrap;html=1;aspect=fixed;" parent="1" vertex="1">
          <mxGeometry x="110" y="390" width="20" height="20" as="geometry" />
        </mxCell>
        <mxCell id="coTzlBghT9K5j_pK15S6-240" value="" style="whiteSpace=wrap;html=1;aspect=fixed;" parent="1" vertex="1">
          <mxGeometry x="130" y="419" width="20" height="20" as="geometry" />
        </mxCell>
        <mxCell id="coTzlBghT9K5j_pK15S6-241" value="" style="whiteSpace=wrap;html=1;aspect=fixed;" parent="1" vertex="1">
          <mxGeometry x="190" y="419" width="20" height="20" as="geometry" />
        </mxCell>
        <mxCell id="coTzlBghT9K5j_pK15S6-242" value="" style="whiteSpace=wrap;html=1;aspect=fixed;" parent="1" vertex="1">
          <mxGeometry x="150" y="419" width="20" height="20" as="geometry" />
        </mxCell>
        <mxCell id="coTzlBghT9K5j_pK15S6-243" value="" style="whiteSpace=wrap;html=1;aspect=fixed;" parent="1" vertex="1">
          <mxGeometry x="170" y="419" width="20" height="20" as="geometry" />
        </mxCell>
        <mxCell id="coTzlBghT9K5j_pK15S6-244" value="" style="whiteSpace=wrap;html=1;aspect=fixed;" parent="1" vertex="1">
          <mxGeometry x="110" y="419" width="20" height="20" as="geometry" />
        </mxCell>
        <mxCell id="coTzlBghT9K5j_pK15S6-245" value="" style="whiteSpace=wrap;html=1;aspect=fixed;" parent="1" vertex="1">
          <mxGeometry x="130" y="480" width="20" height="20" as="geometry" />
        </mxCell>
        <mxCell id="coTzlBghT9K5j_pK15S6-246" value="" style="whiteSpace=wrap;html=1;aspect=fixed;" parent="1" vertex="1">
          <mxGeometry x="190" y="480" width="20" height="20" as="geometry" />
        </mxCell>
        <mxCell id="coTzlBghT9K5j_pK15S6-247" value="" style="whiteSpace=wrap;html=1;aspect=fixed;" parent="1" vertex="1">
          <mxGeometry x="150" y="480" width="20" height="20" as="geometry" />
        </mxCell>
        <mxCell id="coTzlBghT9K5j_pK15S6-248" value="" style="whiteSpace=wrap;html=1;aspect=fixed;" parent="1" vertex="1">
          <mxGeometry x="170" y="480" width="20" height="20" as="geometry" />
        </mxCell>
        <mxCell id="coTzlBghT9K5j_pK15S6-249" value="" style="whiteSpace=wrap;html=1;aspect=fixed;" parent="1" vertex="1">
          <mxGeometry x="110" y="480" width="20" height="20" as="geometry" />
        </mxCell>
        <mxCell id="coTzlBghT9K5j_pK15S6-250" value="" style="whiteSpace=wrap;html=1;aspect=fixed;" parent="1" vertex="1">
          <mxGeometry x="130" y="530" width="20" height="20" as="geometry" />
        </mxCell>
        <mxCell id="coTzlBghT9K5j_pK15S6-251" value="" style="whiteSpace=wrap;html=1;aspect=fixed;" parent="1" vertex="1">
          <mxGeometry x="190" y="530" width="20" height="20" as="geometry" />
        </mxCell>
        <mxCell id="coTzlBghT9K5j_pK15S6-252" value="" style="whiteSpace=wrap;html=1;aspect=fixed;" parent="1" vertex="1">
          <mxGeometry x="150" y="530" width="20" height="20" as="geometry" />
        </mxCell>
        <mxCell id="coTzlBghT9K5j_pK15S6-253" value="" style="whiteSpace=wrap;html=1;aspect=fixed;" parent="1" vertex="1">
          <mxGeometry x="170" y="530" width="20" height="20" as="geometry" />
        </mxCell>
        <mxCell id="coTzlBghT9K5j_pK15S6-254" value="" style="whiteSpace=wrap;html=1;aspect=fixed;" parent="1" vertex="1">
          <mxGeometry x="110" y="530" width="20" height="20" as="geometry" />
        </mxCell>
        <mxCell id="coTzlBghT9K5j_pK15S6-255" value="" style="endArrow=classic;html=1;rounded=0;fontSize=14;startSize=4;endSize=6;strokeColor=#666666;strokeWidth=0.5;jumpSize=4;exitX=1;exitY=0.5;exitDx=0;exitDy=0;entryX=0.515;entryY=0.996;entryDx=0;entryDy=0;entryPerimeter=0;" parent="1" source="coTzlBghT9K5j_pK15S6-236" target="coTzlBghT9K5j_pK15S6-75" edge="1">
          <mxGeometry width="50" height="50" relative="1" as="geometry">
            <mxPoint x="310" y="410" as="sourcePoint" />
            <mxPoint x="360" y="360" as="targetPoint" />
          </mxGeometry>
        </mxCell>
        <mxCell id="coTzlBghT9K5j_pK15S6-256" value="" style="endArrow=classic;html=1;rounded=0;fontSize=14;startSize=4;endSize=6;strokeColor=#666666;strokeWidth=0.5;jumpSize=4;exitX=1;exitY=0.5;exitDx=0;exitDy=0;entryX=0.614;entryY=1.004;entryDx=0;entryDy=0;entryPerimeter=0;" parent="1" source="coTzlBghT9K5j_pK15S6-241" target="coTzlBghT9K5j_pK15S6-75" edge="1">
          <mxGeometry width="50" height="50" relative="1" as="geometry">
            <mxPoint x="220" y="420" as="sourcePoint" />
            <mxPoint x="275.31999999999994" y="467.85" as="targetPoint" />
          </mxGeometry>
        </mxCell>
        <mxCell id="coTzlBghT9K5j_pK15S6-257" value="" style="endArrow=classic;html=1;rounded=0;fontSize=14;startSize=4;endSize=6;strokeColor=#666666;strokeWidth=0.5;jumpSize=4;exitX=1;exitY=0.5;exitDx=0;exitDy=0;entryX=0.656;entryY=0.996;entryDx=0;entryDy=0;entryPerimeter=0;" parent="1" source="coTzlBghT9K5j_pK15S6-50" target="coTzlBghT9K5j_pK15S6-75" edge="1">
          <mxGeometry width="50" height="50" relative="1" as="geometry">
            <mxPoint x="230" y="430" as="sourcePoint" />
            <mxPoint x="285.31999999999994" y="477.85" as="targetPoint" />
          </mxGeometry>
        </mxCell>
        <mxCell id="coTzlBghT9K5j_pK15S6-258" value="" style="endArrow=classic;html=1;rounded=0;fontSize=14;startSize=4;endSize=6;strokeColor=#666666;strokeWidth=0.5;jumpSize=4;exitX=1;exitY=0.5;exitDx=0;exitDy=0;entryX=0.714;entryY=1.004;entryDx=0;entryDy=0;entryPerimeter=0;" parent="1" source="coTzlBghT9K5j_pK15S6-246" target="coTzlBghT9K5j_pK15S6-75" edge="1">
          <mxGeometry width="50" height="50" relative="1" as="geometry">
            <mxPoint x="240" y="440" as="sourcePoint" />
            <mxPoint x="295.31999999999994" y="487.85" as="targetPoint" />
          </mxGeometry>
        </mxCell>
        <mxCell id="coTzlBghT9K5j_pK15S6-259" value="" style="endArrow=classic;html=1;rounded=0;fontSize=14;startSize=4;endSize=6;strokeColor=#666666;strokeWidth=0.5;jumpSize=4;exitX=1;exitY=0.5;exitDx=0;exitDy=0;entryX=0.759;entryY=0.996;entryDx=0;entryDy=0;entryPerimeter=0;" parent="1" source="coTzlBghT9K5j_pK15S6-251" target="coTzlBghT9K5j_pK15S6-75" edge="1">
          <mxGeometry width="50" height="50" relative="1" as="geometry">
            <mxPoint x="250" y="450" as="sourcePoint" />
            <mxPoint x="305.31999999999994" y="497.85" as="targetPoint" />
          </mxGeometry>
        </mxCell>
        <mxCell id="coTzlBghT9K5j_pK15S6-261" value="" style="endArrow=none;dashed=1;html=1;dashPattern=1 3;strokeWidth=2;rounded=0;fontSize=14;startSize=4;endSize=6;jumpSize=4;" parent="1" edge="1">
          <mxGeometry width="50" height="50" relative="1" as="geometry">
            <mxPoint x="160" y="525" as="sourcePoint" />
            <mxPoint x="160" y="505" as="targetPoint" />
          </mxGeometry>
        </mxCell>
        <mxCell id="coTzlBghT9K5j_pK15S6-262" value="&lt;font style=&quot;font-size: 16px&quot;&gt;Embeddings&lt;/font&gt;" style="text;html=1;strokeColor=none;fillColor=none;align=center;verticalAlign=middle;whiteSpace=wrap;rounded=0;rotation=0;" parent="1" vertex="1">
          <mxGeometry x="130" y="565" width="60" height="30" as="geometry" />
        </mxCell>
        <mxCell id="coTzlBghT9K5j_pK15S6-263" value="&lt;font style=&quot;font-size: 16px&quot;&gt;Input&lt;/font&gt;" style="text;html=1;strokeColor=none;fillColor=none;align=center;verticalAlign=middle;whiteSpace=wrap;rounded=0;fontSize=14;rotation=-90;" parent="1" vertex="1">
          <mxGeometry x="20" y="445" width="60" height="30" as="geometry" />
        </mxCell>
        <mxCell id="coTzlBghT9K5j_pK15S6-269" value="" style="endArrow=classic;html=1;rounded=0;fontSize=14;strokeColor=#000000;strokeWidth=0.5;jumpSize=4;shape=flexArrow;width=5.2;startSize=3.068;endSize=3.068;startWidth=7.92;endWidth=7.92;" parent="1" edge="1">
          <mxGeometry width="50" height="50" relative="1" as="geometry">
            <mxPoint x="70" y="460" as="sourcePoint" />
            <mxPoint x="100" y="460" as="targetPoint" />
          </mxGeometry>
        </mxCell>
      </root>
    </mxGraphModel>
  </diagram>
</mxfile>
